<?xml version="1.0" standalone="no"?><!DOCTYPE svg PUBLIC "-//W3C//DTD SVG 1.1//EN" "http://www.w3.org/Graphics/SVG/1.1/DTD/svg11.dtd"><svg t="1553999726577" class="icon" style="" viewBox="0 0 1024 1024" version="1.1" xmlns="http://www.w3.org/2000/svg" p-id="1989" xmlns:xlink="http://www.w3.org/1999/xlink" width="200" height="200"><defs><style type="text/css"></style></defs><path d="M942.44864 1023.98976H66.28352c-36.29568 0-65.6896-29.39392-65.6896-65.6896V169.74336c0-36.25984 29.39392-65.6896 65.6896-65.6896h224.1792V16.44544h55.4496v87.60832h316.90752V16.44544h55.4496v87.60832h224.1792c36.29568 0 65.6896 29.42976 65.6896 65.6896v788.5568c0 36.29568-29.39392 65.6896-65.6896 65.6896z m15.36-793.64096c0-36.29568-29.42976-65.72544-65.73056-65.72544h-173.80864V235.4688h-55.4496V164.62336H345.91232V235.4688h-55.4496V164.62336H116.64896c-36.29568 0-65.72544 29.42976-65.72544 65.72544v141.65504h906.88512V230.3488z m0 197.14048H50.92352v480.45056c0 36.29056 29.42976 65.72032 65.72544 65.72032h775.43936c36.29568 0 65.72544-29.42976 65.72544-65.72032l-0.00512-480.45056z" fill="" p-id="1990"></path><path d="M796.05248 654.52032H525.3632a26.10176 26.10176 0 0 1-26.45504-25.728 26.10688 26.10688 0 0 1 25.728-26.46016H796.05248a26.10688 26.10688 0 1 1 1.26976 52.20352c-0.43008-0.00512-0.84992-0.00512-1.26976-0.01536zM642.45248 784.97792H525.3632a26.09152 26.09152 0 1 1 0.01024-52.17792h117.07904a26.10176 26.10176 0 1 1 1.26976 52.19328c-0.43008-0.00512-0.84992-0.00512-1.26976-0.01536zM403.5072 815.40096H237.98784c-37.16096 0-52.03968-14.87872-52.03968-52.03968v-165.50912c0-37.16096 14.87872-52.02944 52.03968-52.02944H403.5072c37.15584 0 52.03456 14.86848 52.03456 52.03968v165.50912c0 37.15072-14.88384 52.02944-52.03456 52.02944z m-165.51936-224.65024c-12.38016 0-7.10656-5.26848-7.10656 7.11168v165.50912c0 12.36992-5.2736 7.11168 7.10656 7.11168H403.5072c12.37504 0 7.10656 5.25824 7.10656-7.11168V597.8624c0-12.38016 5.26848-7.11168-7.10656-7.11168H237.98784zM702.67392 715.03872l26.88 30.848 70.6816-63.6928s10.76736-6.26688 18.67264 2.50368c8.51968 9.43616-0.75264 21.38624-0.75264 21.38624l-89.6 81.62304-44.8-51.7632s-8.27392-12.60544 1.00864-20.90496c9.12384-8.15104 17.90976 0 17.90976 0z" fill="" p-id="1991"></path></svg>