<?xml version="1.0" standalone="no"?><!DOCTYPE svg PUBLIC "-//W3C//DTD SVG 1.1//EN" "http://www.w3.org/Graphics/SVG/1.1/DTD/svg11.dtd"><svg t="1553998594217" class="icon" style="" viewBox="0 0 1024 1024" version="1.1" xmlns="http://www.w3.org/2000/svg" p-id="1130" xmlns:xlink="http://www.w3.org/1999/xlink" width="200" height="200"><defs><style type="text/css"></style></defs><path d="M85.3 360.5l423.5 231.3c5.1 2.8 10.7 4.1 16.2 4.1 5.8 0 11.7-1.5 16.9-4.5l401.3-231.3c10.5-6.1 17-17.3 17-29.4 0-12.1-6.5-23.3-17-29.4L541.9 70.8c-10.2-5.9-22.8-6-33.1-0.4L85.4 301c-10.9 5.9-17.7 17.3-17.7 29.7 0 12.4 6.7 23.9 17.6 29.8zM524.6 139l333.8 191.9-333.8 192.4-352.3-192.5L524.6 139z" p-id="1131"></path><path d="M909.4 474.9L524.6 696.7 117.8 474.5c-16.5-9-37-2.9-46 13.5s-2.9 37 13.5 46l423.5 231.3c5.1 2.8 10.7 4.1 16.2 4.1 5.8 0 11.7-1.5 16.9-4.5l401.3-231.3c16.2-9.4 21.8-30.1 12.4-46.3-9.3-16.2-30-21.8-46.2-12.4z" p-id="1132"></path><path d="M909.4 663.3L524.6 885.1 117.8 662.9c-16.5-9-37-2.9-46 13.5s-2.9 37 13.5 46l423.5 231.3c5.1 2.8 10.7 4.1 16.2 4.1 5.8 0 11.7-1.5 16.9-4.5L943.2 722c16.2-9.4 21.8-30.1 12.4-46.3-9.3-16.1-30-21.7-46.2-12.4z" p-id="1133"></path></svg>